<svg width="40" height="40" viewBox="0 0 40 40" fill="none" xmlns="http://www.w3.org/2000/svg">
<path d="M10 40C8.61111 40 7.43056 39.4928 6.45833 38.4783C5.48611 37.4638 5 36.2319 5 34.7826C5 33.3333 5.48611 32.1014 6.45833 31.087C7.43056 30.0725 8.61111 29.5652 10 29.5652C10.3889 29.5652 10.75 29.6087 11.0833 29.6957C11.4167 29.7826 11.7361 29.8986 12.0417 30.0435L14.4167 26.9565C13.6389 26.058 13.0972 25.0435 12.7917 23.913C12.4861 22.7826 12.4167 21.6522 12.5833 20.5217L9.20833 19.3478C8.73611 20.0725 8.13889 20.6522 7.41667 21.087C6.69444 21.5217 5.88889 21.7391 5 21.7391C3.61111 21.7391 2.43056 21.2319 1.45833 20.2174C0.486111 19.2029 0 17.971 0 16.5217C0 15.0725 0.486111 13.8406 1.45833 12.8261C2.43056 11.8116 3.61111 11.3043 5 11.3043C6.38889 11.3043 7.56944 11.8116 8.54167 12.8261C9.51389 13.8406 10 15.0725 10 16.5217V16.8696L13.375 18.087C13.9306 17.0435 14.6736 16.1594 15.6042 15.4348C16.5347 14.7101 17.5833 14.2464 18.75 14.0435V10.2609C17.6667 9.94203 16.7708 9.32609 16.0625 8.41304C15.3542 7.5 15 6.43478 15 5.21739C15 3.76812 15.4861 2.53623 16.4583 1.52174C17.4306 0.507246 18.6111 0 20 0C21.3889 0 22.5694 0.507246 23.5417 1.52174C24.5139 2.53623 25 3.76812 25 5.21739C25 6.43478 24.6389 7.5 23.9167 8.41304C23.1944 9.32609 22.3056 9.94203 21.25 10.2609V14.0435C22.4167 14.2464 23.4653 14.7101 24.3958 15.4348C25.3264 16.1594 26.0694 17.0435 26.625 18.087L30 16.8696V16.5217C30 15.0725 30.4861 13.8406 31.4583 12.8261C32.4306 11.8116 33.6111 11.3043 35 11.3043C36.3889 11.3043 37.5694 11.8116 38.5417 12.8261C39.5139 13.8406 40 15.0725 40 16.5217C40 17.971 39.5139 19.2029 38.5417 20.2174C37.5694 21.2319 36.3889 21.7391 35 21.7391C34.1111 21.7391 33.2986 21.5217 32.5625 21.087C31.8264 20.6522 31.2361 20.0725 30.7917 19.3478L27.4167 20.5217C27.5833 21.6522 27.5139 22.7754 27.2083 23.8913C26.9028 25.0072 26.3611 26.029 25.5833 26.9565L27.9583 30C28.2639 29.8551 28.5833 29.7464 28.9167 29.6739C29.25 29.6014 29.6111 29.5652 30 29.5652C31.3889 29.5652 32.5694 30.0725 33.5417 31.087C34.5139 32.1014 35 33.3333 35 34.7826C35 36.2319 34.5139 37.4638 33.5417 38.4783C32.5694 39.4928 31.3889 40 30 40C28.6111 40 27.4306 39.4928 26.4583 38.4783C25.4861 37.4638 25 36.2319 25 34.7826C25 34.2029 25.0903 33.6449 25.2708 33.1087C25.4514 32.5725 25.6944 32.087 26 31.6522L23.625 28.5652C22.4861 29.2319 21.2708 29.5652 19.9792 29.5652C18.6875 29.5652 17.4722 29.2319 16.3333 28.5652L14 31.6522C14.3056 32.087 14.5486 32.5725 14.7292 33.1087C14.9097 33.6449 15 34.2029 15 34.7826C15 36.2319 14.5139 37.4638 13.5417 38.4783C12.5694 39.4928 11.3889 40 10 40ZM5 18.2609C5.47222 18.2609 5.86806 18.0942 6.1875 17.7609C6.50694 17.4275 6.66667 17.0145 6.66667 16.5217C6.66667 16.029 6.50694 15.6159 6.1875 15.2826C5.86806 14.9493 5.47222 14.7826 5 14.7826C4.52778 14.7826 4.13194 14.9493 3.8125 15.2826C3.49306 15.6159 3.33333 16.029 3.33333 16.5217C3.33333 17.0145 3.49306 17.4275 3.8125 17.7609C4.13194 18.0942 4.52778 18.2609 5 18.2609ZM10 36.5217C10.4722 36.5217 10.8681 36.3551 11.1875 36.0217C11.5069 35.6884 11.6667 35.2754 11.6667 34.7826C11.6667 34.2899 11.5069 33.8768 11.1875 33.5435C10.8681 33.2101 10.4722 33.0435 10 33.0435C9.52778 33.0435 9.13194 33.2101 8.8125 33.5435C8.49306 33.8768 8.33333 34.2899 8.33333 34.7826C8.33333 35.2754 8.49306 35.6884 8.8125 36.0217C9.13194 36.3551 9.52778 36.5217 10 36.5217ZM20 6.95652C20.4722 6.95652 20.8681 6.78986 21.1875 6.45652C21.5069 6.12319 21.6667 5.71015 21.6667 5.21739C21.6667 4.72464 21.5069 4.31159 21.1875 3.97826C20.8681 3.64493 20.4722 3.47826 20 3.47826C19.5278 3.47826 19.1319 3.64493 18.8125 3.97826C18.4931 4.31159 18.3333 4.72464 18.3333 5.21739C18.3333 5.71015 18.4931 6.12319 18.8125 6.45652C19.1319 6.78986 19.5278 6.95652 20 6.95652ZM20 26.087C21.1667 26.087 22.1528 25.6667 22.9583 24.8261C23.7639 23.9855 24.1667 22.9565 24.1667 21.7391C24.1667 20.5217 23.7639 19.4928 22.9583 18.6522C22.1528 17.8116 21.1667 17.3913 20 17.3913C18.8333 17.3913 17.8472 17.8116 17.0417 18.6522C16.2361 19.4928 15.8333 20.5217 15.8333 21.7391C15.8333 22.9565 16.2361 23.9855 17.0417 24.8261C17.8472 25.6667 18.8333 26.087 20 26.087ZM30 36.5217C30.4722 36.5217 30.8681 36.3551 31.1875 36.0217C31.5069 35.6884 31.6667 35.2754 31.6667 34.7826C31.6667 34.2899 31.5069 33.8768 31.1875 33.5435C30.8681 33.2101 30.4722 33.0435 30 33.0435C29.5278 33.0435 29.1319 33.2101 28.8125 33.5435C28.4931 33.8768 28.3333 34.2899 28.3333 34.7826C28.3333 35.2754 28.4931 35.6884 28.8125 36.0217C29.1319 36.3551 29.5278 36.5217 30 36.5217ZM35 18.2609C35.4722 18.2609 35.8681 18.0942 36.1875 17.7609C36.5069 17.4275 36.6667 17.0145 36.6667 16.5217C36.6667 16.029 36.5069 15.6159 36.1875 15.2826C35.8681 14.9493 35.4722 14.7826 35 14.7826C34.5278 14.7826 34.1319 14.9493 33.8125 15.2826C33.4931 15.6159 33.3333 16.029 33.3333 16.5217C33.3333 17.0145 33.4931 17.4275 33.8125 17.7609C34.1319 18.0942 34.5278 18.2609 35 18.2609Z" fill="black"/>
</svg>
