<svg width="28" height="27" viewBox="0 0 28 27" fill="none" xmlns="http://www.w3.org/2000/svg">
<path d="M14.0001 1.02728C17.5712 1.02728 20.8065 2.42369 23.1465 4.68019L23.2062 4.74242C25.5107 6.9947 26.9347 10.0881 26.9347 13.4995C26.9347 16.9436 25.4855 20.0628 23.1455 22.3193L23.0809 22.3768C20.7441 24.6001 17.5356 25.9728 14.0001 25.9728C10.4328 25.9728 7.19857 24.5748 4.8574 22.3167C2.51459 20.0628 1.06592 16.9436 1.06592 13.4995C1.06592 10.0554 2.51404 6.9367 4.85412 4.68019C7.1942 2.42369 10.429 1.02728 14.0001 1.02728Z" fill="white"/>
<path d="M13.9997 1C21.1796 1 27 6.59644 27 13.4994C27 20.403 21.1796 26 13.9997 26C6.82043 26 1 20.403 1 13.4994C1 6.59644 6.82043 1 13.9997 1Z" fill="#FEFEFE"/>
<path d="M9.85337 9.19286V1.54791C7.48844 2.3761 4.9549 4.04278 3.5 6.00001L9.85337 9.19286ZM9.85337 17.8072V25.5C7.48958 24.6718 4.95604 22.9584 3.5 21L9.85337 17.8072ZM18.5 17.8072V25.5C20.8724 24.6758 23.0394 22.9606 24.5 21L18.5 17.8072ZM18.5 9.19286V1.5C20.8724 2.32425 23.0399 4.03884 24.5 6.00001L18.5 9.19286Z" fill="#012169"/>
<path d="M26 18.5L22.5 17H19.5L25.5 20C25.6928 19.6298 25.845 18.8899 26 18.5ZM24.9906 6.82286L19.5 10H23L26 8.5C25.806 8.12687 25.2219 7.17404 24.9906 6.82286ZM11.3811 15.9987V25.7459C12.227 25.9116 13.1028 26 13.9997 26C14.8864 26 15.7532 25.9139 16.5906 25.7516V15.9987H26.7393C26.9093 15.1912 27 14.356 27 13.4994C27 12.6399 26.9093 11.8001 26.7375 10.9886H16.5906V1.24895C15.7378 1.08319 14.8698 0.999788 13.9997 1C13.1028 1 12.227 1.08895 11.3811 1.25415V10.9886H1.26252C1.0877 11.8149 0.999752 12.6561 1 13.4994C1 14.356 1.09071 15.1912 1.26072 15.9987H11.3811ZM5.5 10H9L2.5 7C2.30777 7.37025 2.15439 8.11069 2 8.5L5.5 10ZM9 17H5.5L2 18.5C2.19489 18.8748 2.77346 19.8184 3.00642 20.1725L9 17Z" fill="#C8102E"/>
<path d="M23.5519 4.31444L23.552 4.31451C25.994 6.66882 27.5 9.91678 27.5 13.5C27.5 17.0832 25.994 20.3312 23.552 22.6855L23.5519 22.6856C21.1101 25.0407 17.7332 26.5 14 26.5C10.2668 26.5 6.88995 25.0407 4.44812 22.6856L4.44804 22.6855C2.00601 20.3312 0.5 17.0832 0.5 13.5C0.5 9.91678 2.00601 6.66882 4.44804 4.31451L4.44812 4.31444C6.88995 1.95931 10.2668 0.5 14 0.5C17.7332 0.5 21.1101 1.95931 23.5519 4.31444Z" stroke="black"/>
</svg>
