<svg width="28" height="27" viewBox="0 0 28 27" fill="none" xmlns="http://www.w3.org/2000/svg">
<path d="M8.3999 2.05072L10.8705 0.68363L13.6499 0.341858L16.4499 0.675073L18.1999 1.01259L18.5499 1.35007L18.8999 2.05072V25.9748L13.9587 27.0001L8.3999 25.9748V2.05072Z" fill="#FFFDFD"/>
<path d="M18.5496 1.01257L22.0496 3.03757L24.1496 4.72507L27.2996 10.1251V17.5501L24.1496 22.2751L21.6996 24.6376L18.5496 25.9876V1.01257Z" fill="#EE2436"/>
<path d="M1.86665 7.59864L5.6 3.03757L9.8 1.01257V25.9876L6.65 24.6376L3.85 22.6126L0.933325 18.0129L0 11.7644L1.86665 7.59864Z" fill="#001E96"/>
<path d="M27.5 13.5C27.5 20.6627 21.4731 26.5 14 26.5C6.52686 26.5 0.5 20.6627 0.5 13.5C0.5 6.33728 6.52686 0.5 14 0.5C21.4731 0.5 27.5 6.33728 27.5 13.5Z" stroke="black"/>
</svg>
