<svg width="41" height="30" viewBox="0 0 41 30" fill="none" xmlns="http://www.w3.org/2000/svg">
<g clip-path="url(#clip0_1013_40)">
<path d="M0.750488 22.5V7.5H3.25049V12.5H6.58382V7.5H9.08382V22.5H6.58382V16.25H3.25049V22.5H0.750488ZM13.6672 22.5V11.25H10.7505V7.5H19.0838V11.25H16.1672V22.5H13.6672ZM20.7505 22.5V10C20.7505 9.29167 20.9102 8.69792 21.2297 8.21875C21.5491 7.73958 21.9449 7.5 22.4172 7.5H29.9172C30.3894 7.5 30.7852 7.73958 31.1047 8.21875C31.4241 8.69792 31.5838 9.29167 31.5838 10V22.5H29.0838V11.25H27.4172V20H24.9172V11.25H23.2505V22.5H20.7505ZM34.0838 22.5V7.5H36.5838V18.75H40.7505V22.5H34.0838Z" fill="black"/>
</g>
<defs>
<clipPath id="clip0_1013_40">
<rect width="40" height="30" fill="white" transform="translate(0.750488)"/>
</clipPath>
</defs>
</svg>
