<svg width="226" height="50" viewBox="0 0 226 50" fill="none" xmlns="http://www.w3.org/2000/svg">
<path d="M20.0258 4.94193L15.071 9.89677L15.7032 10.2581C16.0387 10.4516 16.5936 10.8129 16.9419 11.0581C17.6129 11.5484 17.6 11.5742 17.5484 10.4645L17.5226 9.89677L18.1548 10.4129C18.4903 10.7097 18.9032 11.0839 19.0581 11.2387C19.5097 11.7419 20.2065 12.9806 20.3871 13.6129C20.529 14.129 20.5936 14.2064 20.8258 14.1419C22.1032 13.8323 24.8387 13.6387 26.2581 13.7806L27.2903 13.8839L26.7097 14.1806C25.6516 14.7355 24.6581 15.4839 23.729 16.4C23.2258 16.9032 22.8387 17.3419 22.8774 17.3677C22.9032 17.3935 23.1226 17.3548 23.3678 17.2903C23.6 17.2129 24.0516 17.1613 24.3484 17.1613H24.9032V22.6323V28.1032L24.5548 28.1806C24.3484 28.2193 23.9097 28.2581 23.5484 28.2839L22.9032 28.3226L22.8258 27.0839C22.7484 25.9355 22.5419 24.9806 22.3226 24.7355C22.2839 24.6839 22.1678 24.8516 22.0903 25.1226C22 25.3935 21.7419 25.8452 21.4968 26.129L21.0581 26.6452L20.6839 26.3097C19.0581 24.8387 16.2194 24.5161 13.5097 25.4968C12.8129 25.7419 12.1807 25.8581 10.9936 25.9355C9.58711 26.0258 9.30323 26.0903 8.58065 26.4387C7.13549 27.1484 6.3742 28.3742 6.24517 30.1419C6.19356 31.0193 6.21936 31.2 6.42582 31.471L6.67098 31.7806L6.73549 30.5032C6.7742 29.7806 6.89033 29.0193 7.00646 28.7484C7.29033 28.0774 8.16775 27.1742 8.87743 26.8129C9.48388 26.5161 9.52259 26.5161 14.129 26.5161C18.7484 26.5161 18.7742 26.5161 19.3936 26.8258C20.1161 27.1871 21.1097 28.2323 21.2258 28.7742C21.329 29.2258 21.2645 29.2258 22.4774 28.9548C24.0645 28.5935 26.6839 28.6581 28.4129 29.0968C28.7226 29.1742 28.7742 29.1226 29.0065 28.6193C29.3161 27.9226 30.0516 27.1871 30.8258 26.8129C31.4065 26.5161 31.4968 26.5161 36.0645 26.5161C40.6839 26.5161 40.7097 26.5161 41.329 26.8258C42.1548 27.2258 43.0194 28.2064 43.2387 28.9935C43.329 29.329 43.4194 30.0645 43.4194 30.6064V31.6129L46.7097 28.3226L50 25.0323L44.1936 19.2258C41.0065 16.0387 38.3484 13.4194 38.3097 13.4194C38.0645 13.4194 37.2387 16.129 37.4323 16.3097C37.4581 16.3355 37.8065 16.2968 38.2065 16.2194C38.6065 16.1548 39.1484 16.129 39.4194 16.1806L39.9226 16.2839L39.1355 16.9677C38.7097 17.3419 38.1419 17.9742 37.8839 18.3742L37.3936 19.0839L36.8516 18.5548C36.2323 17.9484 35.5097 17.4323 34.7355 17.0452C34.0645 16.6968 34.0774 16.5935 34.9419 15.3032C35.4581 14.529 36.1936 13.8064 37.3419 12.9677L37.6903 12.7097L31.329 6.34838L24.9678 -2.73064e-06L20.0258 4.94193Z" fill="black"/>
<path d="M12.2322 12.7355L11.8967 13.0968L12.1419 13.4839C12.3741 13.8452 13.0322 15.7291 13.0322 16.0129C13.0322 16.0774 12.6064 16.1032 11.9483 16.0516C10.3483 15.9226 10.258 16 11.1354 16.7742C11.7935 17.3807 12.9419 18.7613 13.058 19.1097C13.0838 19.2 13.3935 18.9678 13.7548 18.5807C14.5419 17.7291 15.3032 17.2129 16.1419 16.9291L16.787 16.6968L16.1419 15.7807C15.0709 14.2581 13.1612 12.3871 12.6838 12.3871C12.6193 12.3871 12.4128 12.542 12.2322 12.7355Z" fill="black"/>
<path d="M3.76774 21.2L0 24.9678L2.10323 27.071L4.19355 29.1613L5.03226 28.3097C5.49677 27.8452 6.32258 27.0581 6.87742 26.5678L7.87097 25.6774H7.07097C5.79355 25.6774 5.76774 25.5355 6.91613 24.8387C8.10323 24.1291 9.45807 23.1097 9.39355 22.9936C8.64516 21.5742 8.11613 20.1033 7.80645 18.5549C7.67742 17.9742 7.57419 17.471 7.56129 17.4581C7.54839 17.4452 5.84516 19.1226 3.76774 21.2Z" fill="black"/>
<path d="M9.97416 28.3484C9.81932 28.3742 9.54836 28.5548 9.36771 28.7354C9.05803 29.0322 9.03223 29.1613 9.03223 30.1161V31.1613L10.3225 29.8064C11.0193 29.058 11.6 28.4129 11.6129 28.3484C11.6129 28.258 10.4774 28.2451 9.97416 28.3484Z" fill="black"/>
<path d="M13.0709 29.4451C10.7484 31.8322 9.03223 33.7161 9.03223 33.8709C9.03223 34.129 10.0129 35.1225 10.2064 35.0709C10.3096 35.058 11.5742 33.7806 13.0193 32.258C14.4774 30.7355 15.9226 29.2129 16.2451 28.8645L16.8258 28.258H15.5355H14.2322L13.0709 29.4451Z" fill="black"/>
<path d="M31.4968 28.8516C30.929 29.2516 30.8258 29.7806 30.8516 32.0387C30.8645 33.1871 30.9032 34.2194 30.9548 34.3226C31.0064 34.4645 31.6903 33.8323 33.4194 32.0258C34.7355 30.6581 35.9742 29.329 36.1677 29.0839L36.5419 28.6452H34.1677C32.1935 28.6452 31.7548 28.6839 31.4968 28.8516Z" fill="black"/>
<path d="M36.671 32.0258L33.4452 35.4193L34.7484 35.4581L36.0645 35.4968L36.5678 34.9419C36.8516 34.6322 38 33.4193 39.1226 32.2322C41.3807 29.8581 41.4581 29.7032 40.7871 29.0193C40.5807 28.8129 40.2968 28.6452 40.1549 28.6452C39.9871 28.6452 38.7484 29.8581 36.671 32.0258Z" fill="black"/>
<path d="M16.4258 32.1291C14.9161 33.7032 13.6774 35.0581 13.6774 35.1097C13.6774 35.1742 14.6709 35.2258 15.8838 35.2258C18.258 35.2258 18.7741 35.1097 19.0838 34.542C19.187 34.3484 19.2258 33.4839 19.1999 31.7549L19.1612 29.2516L16.4258 32.1291Z" fill="black"/>
<path d="M23.6775 31.3032C23.471 31.329 22.9033 31.4194 22.4388 31.4968L21.5742 31.6258L21.5226 33.0839C21.471 34.3484 21.4194 34.6452 21.1097 35.2645C20.7355 36.0387 20.2839 36.4903 19.4323 36.9419C18.942 37.2129 18.6839 37.2258 15.613 37.2903L12.3226 37.3548L18.6839 43.6774L25.0323 50L31.3549 43.6774L37.6775 37.3548L34.4904 37.2903L31.2904 37.2258L30.6065 36.8387C29.8452 36.4258 29.4194 35.9871 29.0065 35.1742C28.7871 34.7484 28.7226 34.3484 28.671 33.1484L28.6194 31.6387L27.8839 31.4968C27.1097 31.329 24.3226 31.2129 23.6775 31.3032ZM24.9033 35.1613V38.5806H25.4581C26.0517 38.5806 27.2775 38.9032 27.6259 39.1484C27.7936 39.2516 27.4839 39.2903 26.271 39.2903C24.9549 39.2903 24.6194 39.329 24.1291 39.5613C22.8904 40.1419 22.3613 41.1355 22.5936 42.4C22.6581 42.7355 22.6839 43.0323 22.671 43.0581C22.5291 43.1871 19.3678 41.6129 18.2839 40.8774C17.471 40.3226 16.3871 39.3935 16.3871 39.2387C16.3871 39.1871 16.5807 39.0452 16.813 38.9161C17.0323 38.7742 17.5226 38.4774 17.871 38.2452C18.2323 38.0129 18.8517 37.7032 19.2517 37.5484C20.142 37.2258 21.1742 36.3226 21.5355 35.5742C21.6775 35.2774 21.8581 34.7097 21.9355 34.3226C22.1291 33.3677 22.4646 32.2194 22.5936 32.0645C22.7226 31.9355 23.613 31.7935 24.4259 31.7548L24.9033 31.7419V35.1613Z" fill="black"/>
<path d="M39.7548 34.0903L38.4258 35.4839H38.9935C39.5097 35.4839 39.6129 35.4194 40.3613 34.671C41.1484 33.8839 41.1742 33.8323 41.1355 33.2645L41.0967 32.6839L39.7548 34.0903Z" fill="black"/>
<path d="M71.0212 25.6875C71.0212 25.4105 70.9801 25.1634 70.8977 24.9463C70.8154 24.7217 70.6656 24.5158 70.4485 24.3286C70.2314 24.1414 69.9244 23.9543 69.5276 23.7671C69.1308 23.5724 68.6104 23.374 67.9666 23.1719C67.2328 22.9323 66.5328 22.6628 65.8665 22.3633C65.2076 22.0563 64.6199 21.7007 64.1033 21.2964C63.5867 20.8921 63.1786 20.4204 62.8792 19.8813C62.5872 19.3423 62.4412 18.7134 62.4412 17.9946C62.4412 17.2983 62.5947 16.6694 62.9016 16.1079C63.2086 15.5464 63.6391 15.0672 64.1931 14.6704C64.7472 14.2661 65.3985 13.9591 66.1472 13.7495C66.8959 13.5324 67.7195 13.4238 68.6179 13.4238C69.8158 13.4238 70.8678 13.6372 71.7737 14.064C72.6871 14.4832 73.3984 15.0747 73.9075 15.8384C74.4166 16.5946 74.6712 17.4743 74.6712 18.4775H71.0325C71.0325 18.0358 70.9389 17.6465 70.7517 17.3096C70.572 16.9652 70.295 16.6956 69.9207 16.501C69.5538 16.3063 69.0934 16.209 68.5393 16.209C68.0003 16.209 67.5473 16.2913 67.1804 16.4561C66.8211 16.6133 66.5478 16.8304 66.3606 17.1074C66.1809 17.3844 66.0911 17.6877 66.0911 18.0171C66.0911 18.2791 66.1585 18.5187 66.2932 18.7358C66.4355 18.9455 66.6376 19.1439 66.8997 19.3311C67.1692 19.5107 67.4986 19.6829 67.8879 19.8477C68.2773 20.0124 68.7227 20.1696 69.2244 20.3193C70.1003 20.5964 70.8753 20.9033 71.5491 21.2402C72.2304 21.5771 72.8031 21.959 73.2673 22.3857C73.7315 22.8125 74.0797 23.2954 74.3118 23.8345C74.5514 24.3735 74.6712 24.9837 74.6712 25.665C74.6712 26.3913 74.5289 27.0352 74.2444 27.5967C73.9674 28.1582 73.5631 28.6374 73.0315 29.0342C72.5074 29.4235 71.8785 29.7192 71.1448 29.9214C70.4111 30.1235 69.5912 30.2246 68.6853 30.2246C67.8617 30.2246 67.0494 30.1198 66.2483 29.9102C65.4472 29.693 64.721 29.3636 64.0696 28.9219C63.4257 28.4801 62.9091 27.9186 62.5198 27.2373C62.1379 26.5485 61.947 25.7324 61.947 24.7891H65.6082C65.6082 25.2832 65.6793 25.7025 65.8215 26.0469C65.9638 26.3838 66.1659 26.6571 66.428 26.8667C66.6975 27.0763 67.0232 27.2261 67.405 27.3159C67.7869 27.4058 68.2136 27.4507 68.6853 27.4507C69.2319 27.4507 69.6736 27.3758 70.0105 27.2261C70.3549 27.0688 70.6095 26.8555 70.7742 26.5859C70.9389 26.3164 71.0212 26.0169 71.0212 25.6875ZM80.6228 20.3979V30H77.1189V17.8486H80.4095L80.6228 20.3979ZM80.1736 23.4976L79.2864 23.52C79.2864 22.6665 79.3875 21.8841 79.5896 21.1729C79.7993 20.4541 80.1025 19.8289 80.4993 19.2974C80.8961 18.7658 81.3865 18.354 81.9705 18.062C82.562 17.77 83.2433 17.624 84.0145 17.624C84.5535 17.624 85.0439 17.7064 85.4856 17.8711C85.9274 18.0283 86.3055 18.2791 86.6199 18.6235C86.9419 18.9604 87.1889 19.4022 87.3611 19.9487C87.5333 20.4878 87.6194 21.1354 87.6194 21.8916V30H84.1155V22.3184C84.1155 21.7793 84.0481 21.3713 83.9134 21.0942C83.7861 20.8097 83.5989 20.6151 83.3519 20.5103C83.1048 20.4054 82.809 20.353 82.4646 20.353C82.0903 20.353 81.7571 20.4354 81.4651 20.6001C81.1806 20.7573 80.941 20.9782 80.7464 21.2627C80.5517 21.5472 80.4057 21.8804 80.3084 22.2622C80.2186 22.644 80.1736 23.0558 80.1736 23.4976ZM87.2601 23.3179L86.1482 23.4077C86.1482 22.5841 86.2456 21.8205 86.4402 21.1167C86.6349 20.4129 86.9269 19.8027 87.3162 19.2861C87.7055 18.762 88.1884 18.354 88.7649 18.062C89.3489 17.77 90.0265 17.624 90.7977 17.624C91.3667 17.624 91.8833 17.7064 92.3475 17.8711C92.8191 18.0358 93.2234 18.3016 93.5603 18.6685C93.9048 19.0353 94.1705 19.5182 94.3577 20.1172C94.5449 20.7087 94.6385 21.4349 94.6385 22.2959V30H91.1121V22.2959C91.1121 21.7643 91.0447 21.36 90.91 21.083C90.7827 20.806 90.5955 20.6151 90.3484 20.5103C90.1089 20.4054 89.8206 20.353 89.4837 20.353C89.1093 20.353 88.7837 20.4316 88.5066 20.5889C88.2296 20.7386 87.9975 20.9482 87.8103 21.2178C87.6232 21.4798 87.4847 21.7905 87.3948 22.1499C87.305 22.5093 87.2601 22.8986 87.2601 23.3179ZM103.881 27.1025V21.8916C103.881 21.5247 103.825 21.2103 103.712 20.9482C103.6 20.6862 103.424 20.4803 103.184 20.3306C102.945 20.1808 102.634 20.106 102.252 20.106C101.93 20.106 101.65 20.1621 101.41 20.2744C101.178 20.3867 100.998 20.5477 100.871 20.7573C100.751 20.967 100.691 21.2253 100.691 21.5322H97.1873C97.1873 20.9857 97.3109 20.4766 97.5579 20.0049C97.805 19.5332 98.1569 19.1177 98.6136 18.7583C99.0778 18.3989 99.6318 18.1219 100.276 17.9272C100.92 17.7251 101.642 17.624 102.443 17.624C103.394 17.624 104.24 17.785 104.981 18.1069C105.73 18.4214 106.321 18.8968 106.756 19.5332C107.19 20.1621 107.407 20.9557 107.407 21.9141V27.0015C107.407 27.7352 107.448 28.3117 107.531 28.731C107.62 29.1427 107.748 29.5021 107.912 29.8091V30H104.375C104.21 29.6481 104.087 29.2139 104.004 28.6973C103.922 28.1732 103.881 27.6416 103.881 27.1025ZM104.319 22.5879L104.341 24.5195H102.6C102.211 24.5195 101.874 24.5682 101.59 24.6655C101.313 24.7629 101.088 24.8976 100.916 25.0698C100.744 25.2345 100.616 25.4292 100.534 25.6538C100.459 25.8709 100.422 26.1105 100.422 26.3726C100.422 26.6196 100.482 26.8442 100.601 27.0464C100.721 27.241 100.886 27.3945 101.096 27.5068C101.305 27.6191 101.549 27.6753 101.826 27.6753C102.282 27.6753 102.672 27.5854 102.993 27.4058C103.323 27.2261 103.577 27.009 103.757 26.7544C103.937 26.4924 104.027 26.249 104.027 26.0244L104.869 27.4844C104.734 27.7839 104.57 28.0946 104.375 28.4165C104.18 28.731 103.933 29.0267 103.634 29.3037C103.334 29.5732 102.971 29.7941 102.544 29.9663C102.125 30.1385 101.62 30.2246 101.028 30.2246C100.264 30.2246 99.5719 30.0711 98.9505 29.7642C98.3291 29.4497 97.8312 29.0192 97.4569 28.4727C97.09 27.9261 96.9066 27.2972 96.9066 26.5859C96.9066 25.9495 97.0226 25.3843 97.2547 24.8901C97.4868 24.396 97.835 23.9767 98.2992 23.6323C98.7708 23.2879 99.3623 23.0296 100.074 22.8574C100.785 22.6777 101.616 22.5879 102.567 22.5879H104.319ZM113.684 20.6787V30H110.181V17.8486H113.471L113.684 20.6787ZM117.312 17.7588L117.256 21.0269C117.106 21.0044 116.911 20.9857 116.672 20.9707C116.432 20.9482 116.226 20.937 116.054 20.937C115.605 20.937 115.216 20.9932 114.886 21.1055C114.564 21.2103 114.295 21.3675 114.078 21.5771C113.868 21.7868 113.711 22.0488 113.606 22.3633C113.501 22.6702 113.449 23.0259 113.449 23.4302L112.786 23.1045C112.786 22.3034 112.865 21.5697 113.022 20.9033C113.179 20.237 113.407 19.6605 113.707 19.1738C114.006 18.6797 114.373 18.2979 114.807 18.0283C115.242 17.7588 115.736 17.624 116.29 17.624C116.47 17.624 116.653 17.6353 116.84 17.6577C117.027 17.6802 117.185 17.7139 117.312 17.7588ZM125.948 17.8486V20.3081H118.738V17.8486H125.948ZM120.389 14.8389H123.904V26.1929C123.904 26.5298 123.945 26.7881 124.027 26.9678C124.11 27.1475 124.244 27.2747 124.432 27.3496C124.619 27.417 124.858 27.4507 125.15 27.4507C125.36 27.4507 125.54 27.4432 125.689 27.4282C125.839 27.4132 125.978 27.3945 126.105 27.3721V29.9102C125.805 30.0075 125.487 30.0824 125.15 30.1348C124.813 30.1947 124.447 30.2246 124.05 30.2246C123.294 30.2246 122.638 30.1011 122.084 29.854C121.538 29.6069 121.119 29.2176 120.827 28.686C120.535 28.147 120.389 27.4469 120.389 26.5859V14.8389ZM134.459 13.6484H140.737C141.988 13.6484 143.069 13.8356 143.983 14.21C144.904 14.5843 145.611 15.1383 146.105 15.8721C146.6 16.6058 146.847 17.5117 146.847 18.5898C146.847 19.4883 146.701 20.252 146.409 20.8809C146.117 21.5098 145.705 22.0301 145.173 22.4419C144.649 22.8537 144.035 23.1868 143.332 23.4414L142.141 24.0928H136.795L136.773 21.2515H140.749C141.295 21.2515 141.748 21.1541 142.107 20.9595C142.467 20.7648 142.736 20.4915 142.916 20.1396C143.103 19.7803 143.197 19.361 143.197 18.8818C143.197 18.3877 143.103 17.9609 142.916 17.6016C142.729 17.2422 142.452 16.9689 142.085 16.7817C141.726 16.5871 141.276 16.4897 140.737 16.4897H138.121V30H134.459V13.6484ZM143.511 30L139.839 22.7339L143.702 22.7227L147.431 29.8315V30H143.511ZM156.044 27.1025V21.8916C156.044 21.5247 155.988 21.2103 155.876 20.9482C155.763 20.6862 155.587 20.4803 155.348 20.3306C155.108 20.1808 154.797 20.106 154.416 20.106C154.094 20.106 153.813 20.1621 153.573 20.2744C153.341 20.3867 153.161 20.5477 153.034 20.7573C152.914 20.967 152.855 21.2253 152.855 21.5322H149.351C149.351 20.9857 149.474 20.4766 149.721 20.0049C149.968 19.5332 150.32 19.1177 150.777 18.7583C151.241 18.3989 151.795 18.1219 152.439 17.9272C153.083 17.7251 153.805 17.624 154.606 17.624C155.557 17.624 156.403 17.785 157.145 18.1069C157.893 18.4214 158.485 18.8968 158.919 19.5332C159.353 20.1621 159.57 20.9557 159.57 21.9141V27.0015C159.57 27.7352 159.612 28.3117 159.694 28.731C159.784 29.1427 159.911 29.5021 160.076 29.8091V30H156.538C156.373 29.6481 156.25 29.2139 156.168 28.6973C156.085 28.1732 156.044 27.6416 156.044 27.1025ZM156.482 22.5879L156.504 24.5195H154.764C154.374 24.5195 154.037 24.5682 153.753 24.6655C153.476 24.7629 153.251 24.8976 153.079 25.0698C152.907 25.2345 152.78 25.4292 152.697 25.6538C152.622 25.8709 152.585 26.1105 152.585 26.3726C152.585 26.6196 152.645 26.8442 152.765 27.0464C152.884 27.241 153.049 27.3945 153.259 27.5068C153.468 27.6191 153.712 27.6753 153.989 27.6753C154.446 27.6753 154.835 27.5854 155.157 27.4058C155.486 27.2261 155.741 27.009 155.92 26.7544C156.1 26.4924 156.19 26.249 156.19 26.0244L157.032 27.4844C156.897 27.7839 156.733 28.0946 156.538 28.4165C156.343 28.731 156.096 29.0267 155.797 29.3037C155.497 29.5732 155.134 29.7941 154.708 29.9663C154.288 30.1385 153.783 30.2246 153.191 30.2246C152.428 30.2246 151.735 30.0711 151.114 29.7642C150.492 29.4497 149.995 29.0192 149.62 28.4727C149.253 27.9261 149.07 27.2972 149.07 26.5859C149.07 25.9495 149.186 25.3843 149.418 24.8901C149.65 24.396 149.998 23.9767 150.462 23.6323C150.934 23.2879 151.526 23.0296 152.237 22.8574C152.948 22.6777 153.779 22.5879 154.73 22.5879H156.482ZM167.409 27.4956C167.783 27.4956 168.109 27.4245 168.386 27.2822C168.663 27.14 168.876 26.9416 169.026 26.687C169.183 26.425 169.262 26.1105 169.262 25.7437H172.564C172.564 26.6271 172.335 27.4058 171.878 28.0796C171.429 28.7534 170.823 29.2812 170.059 29.6631C169.295 30.0374 168.434 30.2246 167.476 30.2246C166.533 30.2246 165.709 30.0711 165.005 29.7642C164.302 29.4497 163.714 29.0117 163.242 28.4502C162.771 27.8887 162.415 27.2373 162.175 26.4961C161.943 25.7474 161.827 24.9388 161.827 24.0703V23.7783C161.827 22.9173 161.943 22.1125 162.175 21.3638C162.415 20.6151 162.771 19.96 163.242 19.3984C163.714 18.8369 164.298 18.4027 164.994 18.0957C165.698 17.7812 166.522 17.624 167.465 17.624C168.461 17.624 169.34 17.8149 170.104 18.1968C170.875 18.5786 171.478 19.1289 171.912 19.8477C172.346 20.5589 172.564 21.4162 172.564 22.4194H169.262C169.262 22.0301 169.191 21.682 169.048 21.375C168.914 21.0605 168.704 20.8135 168.42 20.6338C168.142 20.4466 167.798 20.353 167.386 20.353C166.96 20.353 166.608 20.4466 166.331 20.6338C166.061 20.8135 165.855 21.0643 165.713 21.3862C165.571 21.7082 165.473 22.075 165.421 22.4868C165.369 22.8911 165.342 23.3216 165.342 23.7783V24.0703C165.342 24.5345 165.369 24.9762 165.421 25.3955C165.473 25.8073 165.571 26.1704 165.713 26.4849C165.863 26.7993 166.072 27.0464 166.342 27.2261C166.611 27.4058 166.967 27.4956 167.409 27.4956ZM179.84 27.4956C180.215 27.4956 180.54 27.4245 180.817 27.2822C181.095 27.14 181.308 26.9416 181.458 26.687C181.615 26.425 181.693 26.1105 181.693 25.7437H184.995C184.995 26.6271 184.767 27.4058 184.31 28.0796C183.861 28.7534 183.255 29.2812 182.491 29.6631C181.727 30.0374 180.866 30.2246 179.908 30.2246C178.964 30.2246 178.141 30.0711 177.437 29.7642C176.733 29.4497 176.146 29.0117 175.674 28.4502C175.202 27.8887 174.847 27.2373 174.607 26.4961C174.375 25.7474 174.259 24.9388 174.259 24.0703V23.7783C174.259 22.9173 174.375 22.1125 174.607 21.3638C174.847 20.6151 175.202 19.96 175.674 19.3984C176.146 18.8369 176.73 18.4027 177.426 18.0957C178.13 17.7812 178.953 17.624 179.897 17.624C180.892 17.624 181.772 17.8149 182.536 18.1968C183.307 18.5786 183.91 19.1289 184.344 19.8477C184.778 20.5589 184.995 21.4162 184.995 22.4194H181.693C181.693 22.0301 181.622 21.682 181.48 21.375C181.345 21.0605 181.136 20.8135 180.851 20.6338C180.574 20.4466 180.23 20.353 179.818 20.353C179.391 20.353 179.039 20.4466 178.762 20.6338C178.493 20.8135 178.287 21.0643 178.145 21.3862C178.002 21.7082 177.905 22.075 177.853 22.4868C177.8 22.8911 177.774 23.3216 177.774 23.7783V24.0703C177.774 24.5345 177.8 24.9762 177.853 25.3955C177.905 25.8073 178.002 26.1704 178.145 26.4849C178.294 26.7993 178.504 27.0464 178.774 27.2261C179.043 27.4058 179.399 27.4956 179.84 27.4956ZM186.691 24.0479V23.812C186.691 22.9211 186.818 22.1012 187.072 21.3525C187.327 20.5964 187.701 19.9412 188.195 19.3872C188.69 18.8332 189.296 18.4027 190.015 18.0957C190.734 17.7812 191.557 17.624 192.486 17.624C193.429 17.624 194.26 17.7812 194.979 18.0957C195.705 18.4027 196.315 18.8332 196.809 19.3872C197.303 19.9412 197.678 20.5964 197.932 21.3525C198.187 22.1012 198.314 22.9211 198.314 23.812V24.0479C198.314 24.9313 198.187 25.7511 197.932 26.5073C197.678 27.256 197.303 27.9111 196.809 28.4727C196.315 29.0267 195.709 29.4572 194.99 29.7642C194.271 30.0711 193.444 30.2246 192.508 30.2246C191.58 30.2246 190.752 30.0711 190.026 29.7642C189.3 29.4572 188.69 29.0267 188.195 28.4727C187.701 27.9111 187.327 27.256 187.072 26.5073C186.818 25.7511 186.691 24.9313 186.691 24.0479ZM190.206 23.812V24.0479C190.206 24.527 190.243 24.9762 190.318 25.3955C190.4 25.8148 190.531 26.1816 190.711 26.4961C190.891 26.8105 191.127 27.0576 191.419 27.2373C191.718 27.4095 192.081 27.4956 192.508 27.4956C192.935 27.4956 193.294 27.4095 193.586 27.2373C193.878 27.0576 194.114 26.8105 194.294 26.4961C194.473 26.1816 194.601 25.8148 194.675 25.3955C194.758 24.9762 194.799 24.527 194.799 24.0479V23.812C194.799 23.3403 194.758 22.8986 194.675 22.4868C194.601 22.0675 194.473 21.6969 194.294 21.375C194.114 21.0531 193.874 20.8022 193.575 20.6226C193.283 20.4429 192.92 20.353 192.486 20.353C192.066 20.353 191.711 20.4429 191.419 20.6226C191.127 20.8022 190.891 21.0531 190.711 21.375C190.531 21.6969 190.4 22.0675 190.318 22.4868C190.243 22.8986 190.206 23.3403 190.206 23.812ZM200.111 24.0479V23.812C200.111 22.9211 200.238 22.1012 200.492 21.3525C200.747 20.5964 201.121 19.9412 201.615 19.3872C202.11 18.8332 202.716 18.4027 203.435 18.0957C204.154 17.7812 204.977 17.624 205.905 17.624C206.849 17.624 207.68 17.7812 208.399 18.0957C209.125 18.4027 209.735 18.8332 210.229 19.3872C210.723 19.9412 211.098 20.5964 211.352 21.3525C211.607 22.1012 211.734 22.9211 211.734 23.812V24.0479C211.734 24.9313 211.607 25.7511 211.352 26.5073C211.098 27.256 210.723 27.9111 210.229 28.4727C209.735 29.0267 209.129 29.4572 208.41 29.7642C207.691 30.0711 206.864 30.2246 205.928 30.2246C205 30.2246 204.172 30.0711 203.446 29.7642C202.72 29.4572 202.11 29.0267 201.615 28.4727C201.121 27.9111 200.747 27.256 200.492 26.5073C200.238 25.7511 200.111 24.9313 200.111 24.0479ZM203.626 23.812V24.0479C203.626 24.527 203.663 24.9762 203.738 25.3955C203.82 25.8148 203.951 26.1816 204.131 26.4961C204.311 26.8105 204.547 27.0576 204.839 27.2373C205.138 27.4095 205.501 27.4956 205.928 27.4956C206.355 27.4956 206.714 27.4095 207.006 27.2373C207.298 27.0576 207.534 26.8105 207.714 26.4961C207.893 26.1816 208.021 25.8148 208.095 25.3955C208.178 24.9762 208.219 24.527 208.219 24.0479V23.812C208.219 23.3403 208.178 22.8986 208.095 22.4868C208.021 22.0675 207.893 21.6969 207.714 21.375C207.534 21.0531 207.294 20.8022 206.995 20.6226C206.703 20.4429 206.34 20.353 205.905 20.353C205.486 20.353 205.131 20.4429 204.839 20.6226C204.547 20.8022 204.311 21.0531 204.131 21.375C203.951 21.6969 203.82 22.0675 203.738 22.4868C203.663 22.8986 203.626 23.3403 203.626 23.812ZM217.472 20.4429V30H213.957V17.8486H217.259L217.472 20.4429ZM217.012 23.4976L216.136 23.52C216.136 22.6066 216.248 21.7868 216.473 21.0605C216.698 20.3343 217.016 19.7166 217.427 19.2075C217.847 18.6909 218.345 18.2979 218.921 18.0283C219.505 17.7588 220.149 17.624 220.853 17.624C221.422 17.624 221.942 17.7064 222.414 17.8711C222.885 18.0358 223.29 18.3016 223.627 18.6685C223.971 19.0278 224.233 19.507 224.413 20.106C224.593 20.6974 224.682 21.4274 224.682 22.2959V30H221.156V22.2847C221.156 21.7756 221.085 21.3825 220.943 21.1055C220.8 20.8285 220.591 20.6338 220.314 20.5215C220.044 20.4092 219.715 20.353 219.325 20.353C218.914 20.353 218.562 20.4354 218.27 20.6001C217.978 20.7573 217.738 20.9782 217.551 21.2627C217.364 21.5472 217.225 21.8804 217.135 22.2622C217.053 22.644 217.012 23.0558 217.012 23.4976Z" fill="black"/>
</svg>
