<svg width="41" height="40" viewBox="0 0 41 40" fill="none" xmlns="http://www.w3.org/2000/svg">
<path d="M11.5472 34.3197C10.7712 34.3197 10.1069 34.0291 9.55427 33.4477C9.00165 32.8664 8.72534 32.1676 8.72534 31.3513V4.63512C8.72534 3.81879 9.00165 3.11997 9.55427 2.53864C10.1069 1.95732 10.7712 1.66666 11.5472 1.66666H21.4238V4.63512H11.5472V6.11935H21.4238V9.08781H11.5472V26.8986H25.6566V23.9301H28.4784V31.3513C28.4784 32.1676 28.2021 32.8664 27.6495 33.4477C27.0969 34.0291 26.4326 34.3197 25.6566 34.3197H11.5472ZM11.5472 29.867V31.3513H25.6566V29.867H11.5472ZM27.0675 20.9616L20.0128 13.5405L21.9881 11.4626L25.6566 15.3216V4.63512H28.4784V15.3216L32.1469 11.4626L34.1222 13.5405L27.0675 20.9616Z" fill="black"/>
</svg>
