<svg width="57" height="56" viewBox="0 0 57 56" fill="none" xmlns="http://www.w3.org/2000/svg">
<path d="M24.9611 24H29.3165V10H24.9611V24ZM31.4942 21H35.8496V12H31.4942V21ZM18.428 20H22.7834V12H18.428V20ZM14.0726 40V31.4C12.0038 29.6667 10.3978 27.6417 9.25448 25.325C8.1112 23.0083 7.53955 20.5667 7.53955 18C7.53955 13 9.44503 8.75 13.256 5.25C17.067 1.75 21.6946 0 27.1388 0C31.6757 0 35.6953 1.225 39.1978 3.675C42.7002 6.125 44.9777 9.31667 46.0303 13.25L48.8613 23.5C49.0428 24.1333 48.9157 24.7083 48.4802 25.225C48.0446 25.7417 47.4639 26 46.738 26H42.3826V32C42.3826 33.1 41.9562 34.0417 41.1032 34.825C40.2503 35.6083 39.225 36 38.0273 36H33.6719V40H29.3165V32H38.0273V22H43.907L41.8382 14.25C41.0034 11.2167 39.225 8.75 36.5029 6.85C33.7808 4.95 30.6594 4 27.1388 4C22.9286 4 19.3354 5.35 16.3592 8.05C13.383 10.75 11.8949 14.0333 11.8949 17.9C11.8949 19.9 12.3396 21.8 13.2288 23.6C14.118 25.4 15.3792 27 17.0125 28.4L18.428 29.6V40H14.0726Z" fill="black"/>
</svg>
