<svg width="41" height="40" viewBox="0 0 41 40" fill="none" xmlns="http://www.w3.org/2000/svg">
<path d="M18.5328 24.5556L28.8509 12L26.26 8.83333L18.5328 18.2778L14.6691 13.5556L12.1237 16.6667L18.5328 24.5556ZM0.487305 40V35.5556H40.4873V40H0.487305ZM5.94185 33.3333C4.94185 33.3333 4.08579 32.8981 3.37367 32.0278C2.66155 31.1574 2.30549 30.1111 2.30549 28.8889V4.44444C2.30549 3.22222 2.66155 2.17593 3.37367 1.30556C4.08579 0.435185 4.94185 0 5.94185 0H35.0328C36.0328 0 36.8888 0.435185 37.6009 1.30556C38.3131 2.17593 38.6691 3.22222 38.6691 4.44444V28.8889C38.6691 30.1111 38.3131 31.1574 37.6009 32.0278C36.8888 32.8981 36.0328 33.3333 35.0328 33.3333H5.94185ZM5.94185 28.8889H35.0328V4.44444H5.94185V28.8889Z" fill="black"/>
</svg>
